<svg xmlns="http://www.w3.org/2000/svg" xmlns:xlink="http://www.w3.org/1999/xlink" x="0px" y="0px"
	 viewBox="0 0 1050.1 723" style="enable-background:new 0 0 1050.1 723;" xml:space="preserve">
	<style type="text/css">
		.st0{fill:none;stroke:#8A1006;stroke-width:21.893;stroke-linejoin:round;stroke-miterlimit:10;}
		.st1{fill:none;stroke:#7C7C7C;stroke-width:20;stroke-linejoin:round;stroke-miterlimit:10;}
		.st2{fill:#2B2B2B;}
		.st3{fill:#7C7C7C;}
		.st4{fill:none;stroke:#7C7C7C;stroke-width:13;stroke-linecap:round;stroke-miterlimit:10;}
		.st5{fill:#57110D;}
		.st6{fill:#8A1006;}
		.st7{fill:none;stroke:#777777;stroke-width:24;stroke-miterlimit:10;}
		.st8{fill:none;stroke:#000000;stroke-width:24.9665;stroke-miterlimit:10;}
		.st9{fill:#6C6C6C;}
		.st10{fill:#B3B2B1;}
		.st11{fill:#777777;}
		.st12{fill:none;stroke:#B3B2B1;stroke-width:13;stroke-linecap:round;stroke-miterlimit:10;}
		.st13{fill:none;stroke:#010202;stroke-width:22.1653;stroke-linecap:round;stroke-miterlimit:10;}
		.st14{fill:none;stroke:#2B2B2B;stroke-width:22.1653;stroke-linecap:round;stroke-miterlimit:10;}
	</style>
	<path class="st0" d="M702.8,120.1"/>
	<line class="st1" x1="708.4" y1="104.7" x2="678.6" y2="201.8"/>
	<path class="st2" d="M652.1,116.5c0,0,83.8,0,108.5,0c24.7,0,23.5-56,0-46.6s-28.2,22.8-56.8,22.8S637.9,72.5,652.1,116.5z"/>
	<polygon class="st3" points="517.3,368 558.9,373.7 578.5,367.4 535.3,362.2 					"/>
	<polygon class="st3" points="516.8,379.4 517.3,368 551,368.2 578.5,367.4 578,378.7 545,379.8 					"/>
	<polygon points="516.8,379.4 558.4,385.1 578,378.7 534.7,373.5 				"/>
	<line class="st4" x1="553.1" y1="371.5" x2="565.4" y2="470.8"/>
	<path class="st5" d="M791.5,443.1c-2.2,0-4.3,0.4-6.3,1.2c-1.3-2.2-2.6-4.3-3.8-6.5c-4.9-8.3-9.7-16.6-14.3-25
				c-4.7-8.4-9.3-16.8-13.8-25.3c-4.5-8.5-8.8-17-13.1-25.6c-8.5-17.1-16.5-34.5-23.5-52.1c-3.5-8.8-6.7-17.7-9.6-26.5
				c-2.8-8.9-5.3-17.8-7-26.7l-22.4,4.8c2.4,10,5.5,19.6,9,29c3.5,9.3,7.3,18.5,11.4,27.4c8.2,17.9,17.2,35.2,26.7,52.3
				c9.5,17,19.5,33.7,29.9,50.1c6.9,10.9,13.9,21.7,21.1,32.4c-2.2,3.7-3.6,8.2-3.6,13c0,12.4,8.7,22.5,19.4,22.5
				s19.4-10.1,19.4-22.5C810.8,453.1,802.2,443.1,791.5,443.1z"/>
	<path class="st6" d="M333.3,257.2l6.3-40.3l6.5-40.4c2.2-13.5,4.3-27,6.5-40.5c2.2-13.5,4.4-27,6.7-40.4l18.8,2.6
					c-1.5,13.6-3.2,27.2-5,40.8c-1.7,13.6-3.7,27.1-5.6,40.7c-0.9,6.8-1.9,13.6-3,20.3l-3.2,20.3l-3.4,20.3
					c-1.2,6.8-2.5,13.5-3.8,20.3L333.3,257.2z"/>
	<path class="st5" d="M216.8,462.4c5-8.1,10-16.4,14.8-24.6c4.9-8.3,9.7-16.6,14.3-25c4.7-8.4,9.3-16.8,13.8-25.3
					c4.5-8.5,8.8-17,13.1-25.6c8.5-17.1,16.5-34.5,23.5-52.1c3.5-8.8,6.7-17.7,9.6-26.5c2.8-8.9,5.3-17.8,7-26.7l22.4,4.8
					c-2.4,10-5.5,19.6-9,29c-3.5,9.3-7.3,18.5-11.4,27.4c-8.2,17.9-17.2,35.2-26.7,52.3c-9.5,17-19.5,33.7-29.9,50.1
					c-10.4,16.4-21,32.6-32.3,48.5L216.8,462.4z"/>
	<ellipse class="st5" cx="221.5" cy="465.6" rx="19.4" ry="22.5"/>
	<path class="st6" d="M313,256.7c0.9-6,15.6-8.6,30.7-8.6s29.1,8,27.7,13.1s-30.5,26.6-30.5,26.6s6.7-18.1-1.8-18.1
				c-8.6,0-10.6,15.9-10.6,15.9L313,256.7z"/>
	<ellipse class="st7" cx="239.6" cy="465.6" rx="151.6" ry="186.6"/>
	<ellipse class="st8" cx="239.6" cy="465.6" rx="157.7" ry="194.1"/>
	<path class="st6" d="M736.2,256.7c-0.9-6-15.6-8.6-30.7-8.6s-29.1,8-27.7,13.1s30.5,26.6,30.5,26.6s-6.7-18.1,1.8-18.1
				s10.6,15.9,10.6,15.9L736.2,256.7z"/>
	<ellipse class="st7" cx="809.7" cy="465.6" rx="151.6" ry="186.6"/>
	<ellipse class="st8" cx="809.7" cy="465.6" rx="157.7" ry="194.1"/>
	<path class="st6" d="M360.3,160.5l41.4-0.7l41.4-0.6c27.6-0.4,55.3-0.6,82.9-0.9c27.6-0.3,55.3-0.4,82.9-0.6l41.4-0.3l41.4-0.2
					l9.5,0l0.9,9.3c0.3,3.6,0.8,7.5,1.2,11.2l1.4,11.3c1,7.6,2,15.1,3,22.7c1.1,7.6,2.2,15.1,3.4,22.7c1.2,7.6,2.4,15.1,3.7,22.7
					l-18.7,3.4c-1.4-7.6-2.8-15.2-4.2-22.8c-1.3-7.6-2.6-15.3-3.9-22.9c-1.2-7.7-2.4-15.3-3.5-23l-1.5-11.6c-0.5-3.9-1-7.7-1.4-11.7
					l10.3,9.3l-41.4,0.7l-41.4,0.6c-27.6,0.4-55.3,0.8-82.9,1.1c-27.6,0.3-55.3,0.7-82.9,0.9l-41.4,0.3l-41.4,0.2L360.3,160.5z"/>
	<polyline class="st0" points="692,167.7 564,482.6 352.2,208 		"/>
	<path class="st6" d="M253.1,462.4c5-8.1,10-16.4,14.8-24.6c4.9-8.3,9.7-16.6,14.3-25c4.7-8.4,9.3-16.8,13.8-25.3
						c4.5-8.5,8.8-17,13.1-25.6c8.5-17.1,16.5-34.5,23.5-52.1c3.5-8.8,6.7-17.7,9.6-26.5c2.8-8.9,5.3-17.8,7-26.7l22.4,4.8
						c-2.4,10-5.5,19.6-9,29c-3.5,9.3-7.3,18.5-11.4,27.4c-8.2,17.9-17.2,35.2-26.7,52.3c-9.5,17-19.5,33.7-29.9,50.1
						c-10.4,16.4-21,32.6-32.3,48.5L253.1,462.4z"/>
	<ellipse class="st6" cx="257.8" cy="465.6" rx="19.4" ry="22.5"/>
	<polygon class="st9" points="566.7,429.3 573.1,427.2 578.6,431.4 585.2,431.8 589.3,437.8 595.5,440.4 597.9,447.6 603,452.3 
					603.3,460 607,466.3 605.2,473.7 607,481 603.3,487.4 603,495 597.9,499.8 595.5,506.9 589.3,509.6 585.2,515.6 578.6,515.9 
					573.1,520.1 566.7,518.1 560.3,520.1 554.8,515.9 548.2,515.6 544.1,509.6 537.9,506.9 535.5,499.8 530.4,495 530.1,487.4 
					526.4,481 528.2,473.7 526.4,466.3 530.1,460 530.4,452.3 535.5,447.6 537.9,440.4 544.1,437.8 548.2,431.8 554.8,431.4 
					560.3,427.2 			"/>
	<polygon class="st10" points="570.3,429.3 576.6,427.2 582.2,431.4 588.8,431.8 592.9,437.8 599.1,440.4 601.4,447.6 
					606.6,452.3 606.9,460 610.5,466.3 608.8,473.7 610.5,481 606.9,487.4 606.6,495 601.4,499.8 599.1,506.9 592.9,509.6 
					588.8,515.6 582.2,515.9 576.6,520.1 570.3,518.1 563.9,520.1 558.4,515.9 551.7,515.6 547.6,509.6 541.4,506.9 539.1,499.8 
					533.9,495 533.6,487.4 530,481 531.7,473.7 530,466.3 533.6,460 533.9,452.3 539.1,447.6 541.4,440.4 547.6,437.8 551.7,431.8 
					558.4,431.4 563.9,427.2 			"/>
	<polygon class="st9" points="821.8,427 827.3,425.2 832.1,428.9 837.8,429.1 841.4,434.3 846.7,436.6 848.7,442.8 853.2,446.9 
						853.5,453.5 856.6,459 855.1,465.4 856.6,471.7 853.5,477.2 853.2,483.8 848.7,487.9 846.7,494.1 841.4,496.4 837.8,501.6 
						832.1,501.9 827.3,505.5 821.8,503.8 816.3,505.5 811.5,501.9 805.8,501.6 802.2,496.4 796.9,494.1 794.9,487.9 790.4,483.8 
						790.1,477.2 787,471.7 788.5,465.4 787,459 790.1,453.5 790.4,446.9 794.9,442.8 796.9,436.6 802.2,434.3 805.8,429.1 
						811.5,428.9 816.3,425.2 				"/>
	<polygon class="st10" points="824.9,427 830.4,425.2 835.2,428.9 840.9,429.1 844.5,434.3 849.8,436.6 851.8,442.8 856.3,446.9 
						856.5,453.5 859.7,459 858.2,465.4 859.7,471.7 856.5,477.2 856.3,483.8 851.8,487.9 849.8,494.1 844.5,496.4 840.9,501.6 
						835.2,501.9 830.4,505.5 824.9,503.8 819.4,505.5 814.6,501.9 808.9,501.6 805.3,496.4 800,494.1 797.9,487.9 793.5,483.8 
						793.2,477.2 790.1,471.7 791.6,465.4 790.1,459 793.2,453.5 793.5,446.9 797.9,442.8 800,436.6 805.3,434.3 808.9,429.1 
						814.6,428.9 819.4,425.2 				"/>
	<polygon class="st9" points="826.3,437.9 830.2,436.6 833.7,439.2 837.7,439.4 840.3,443.1 844.1,444.8 845.6,449.2 
						848.8,452.2 849,456.9 851.2,460.8 850.1,465.4 851.2,469.9 849,473.9 848.8,478.6 845.6,481.5 844.1,485.9 840.3,487.6 
						837.7,491.3 833.7,491.5 830.2,494.1 826.3,492.8 822.3,494.1 818.9,491.5 814.8,491.3 812.3,487.6 808.4,485.9 807,481.5 
						803.8,478.6 803.6,473.9 801.4,469.9 802.5,465.4 801.4,460.8 803.6,456.9 803.8,452.2 807,449.2 808.4,444.8 812.3,443.1 
						814.8,439.4 818.9,439.2 822.3,436.6 				"/>
	<polygon class="st10" points="828.5,437.9 832.4,436.6 835.9,439.2 839.9,439.4 842.5,443.1 846.3,444.8 847.8,449.2 851,452.2 
						851.2,456.9 853.4,460.8 852.3,465.4 853.4,469.9 851.2,473.9 851,478.6 847.8,481.5 846.3,485.9 842.5,487.6 839.9,491.3 
						835.9,491.5 832.4,494.1 828.5,492.8 824.5,494.1 821.1,491.5 817,491.3 814.5,487.6 810.6,485.9 809.2,481.5 806,478.6 
						805.8,473.9 803.6,469.9 804.7,465.4 803.6,460.8 805.8,456.9 806,452.2 809.2,449.2 810.6,444.8 814.5,443.1 817,439.4 
						821.1,439.2 824.5,436.6 				"/>
	<path class="st6" d="M832.4,462.4c-5-8.1-10-16.4-14.8-24.6c-4.9-8.3-9.7-16.6-14.3-25c-4.7-8.4-9.3-16.8-13.8-25.3
					c-4.5-8.5-8.8-17-13.1-25.6c-8.5-17.1-16.5-34.5-23.5-52.1c-3.5-8.8-6.7-17.7-9.6-26.5c-2.8-8.9-5.3-17.8-7-26.7l-22.4,4.8
					c2.4,10,5.5,19.6,9,29c3.5,9.3,7.3,18.5,11.4,27.4c8.2,17.9,17.2,35.2,26.7,52.3c9.5,17,19.5,33.7,29.9,50.1
					c10.4,16.4,21,32.6,32.3,48.5L832.4,462.4z"/>
	<ellipse class="st6" cx="827.8" cy="465.6" rx="19.4" ry="22.5"/>
	<ellipse class="st11" cx="568.7" cy="473.7" rx="21.2" ry="26.1"/>
	<ellipse class="st10" cx="568.7" cy="473.7" rx="16.7" ry="20.5"/>
	<line class="st12" x1="565.6" y1="471.1" x2="577.9" y2="570.3"/>
	<polygon class="st3" points="548.2,568.9 589.1,578.5 609.2,574 566.6,564.8 				"/>
	<polygon class="st3" points="546.6,580.2 548.2,568.9 581.7,572.3 609.2,574 607.6,585.3 574.6,583.3 				"/>
	<polygon points="546.6,580.2 587.5,589.8 607.6,585.3 565,576 			"/>
	<path class="st13" d="M267.8,78.3c32-29,61.4,24.4,103.7,24.4"/>
	<path class="st14" d="M475.2,78.3c-32-29-61.4,24.4-103.7,24.4"/>
</svg>
