<svg version="1.1" xmlns="http://www.w3.org/2000/svg" xmlns:xlink="http://www.w3.org/1999/xlink" x="0px" y="0px"
viewBox="0 0 512.001 512.001" style="enable-background:new 0 0 512.001 512.001;" xml:space="preserve">
	<polygon style="fill:#F0C19C;" points="323.374,353.946 256.001,446.662 188.628,353.946 "/>
	<polygon style="fill:#70BBD6;" points="349.86,318.662 259.807,318.662 259.807,318.662 252.194,318.662 162.141,318.662 
	100.214,379.558 100.214,512 144.802,512 367.199,512 367.199,512 411.787,512 411.787,379.558 "/>
	<path style="fill:#7DD2F0;" d="M259.807,318.662h98.556c59.311,0,107.392,48.081,107.392,107.392v85.947h-98.556v-85.947
	C367.199,366.743,319.118,318.662,259.807,318.662z"/>
	<path style="fill:#7DD2F0;" d="M252.194,318.662h-98.556c-59.311,0-107.392,48.081-107.392,107.392v85.947h98.556v-85.947
	C144.802,366.743,192.883,318.662,252.194,318.662z"/>
	<path style="opacity:0.1;enable-background:new    ;" d="M256.001,414.93c63.31,0,118.663-34.705,148.047-86.086
	c-13.864-6.527-29.347-10.182-45.685-10.182h-8.503l0,0h-90.053l0,0h-7.613h-90.053h-8.503c-16.338,0-31.822,3.655-45.685,10.182
	C137.337,380.225,192.69,414.93,256.001,414.93z"/>
	<path style="fill:#65667A;" d="M256.001,387.553c-78.874,0-143.043-64.17-143.043-143.043V119.577h286.086v124.933
	C399.043,323.384,334.875,387.553,256.001,387.553z"/>
	<path style="fill:#B9E578;" d="M256.001,0L256.001,0c-86.038,0-155.786,69.748-155.786,155.786v64.099
	c0,13.601,11.025,24.626,24.626,24.626h262.321c13.601,0,24.626-11.025,24.626-24.626v-64.099C411.787,69.748,342.039,0,256.001,0z"
	/>
	<path style="fill:#F0C19C;" d="M140.334,146.953v97.556c0,63.881,51.786,115.666,115.666,115.666l0,0
	c63.881,0,115.666-51.786,115.666-115.666v-97.556L140.334,146.953L140.334,146.953z"/>
	<path style="fill:#CFFF86;" d="M256.001,86.06c10.234,0,18.532-8.297,18.532-18.532V1.102C268.455,0.381,262.273,0,256.001,0l0,0
	c-6.271,0-12.454,0.381-18.532,1.102v66.427C237.469,77.763,245.766,86.06,256.001,86.06z"/>
	<path style="fill:#CFFF86;" d="M186.044,98.106c10.234,0,18.532-8.297,18.532-18.532V8.699
	c-13.266,4.638-25.71,11.017-37.064,18.868v52.007C167.513,89.809,175.81,98.106,186.044,98.106z"/>
	<path style="fill:#CFFF86;" d="M325.957,98.106c10.234,0,18.532-8.297,18.532-18.532V27.567
	c-11.354-7.851-23.798-14.23-37.064-18.868v70.875C307.425,89.809,315.722,98.106,325.957,98.106z"/>
	<circle style="fill:#5A4146;" cx="202.785" cy="207.745" r="13.612"/>
	<circle style="fill:#5A4146;" cx="309.214" cy="207.745" r="13.612"/>
	<path style="fill:#5A4146;" d="M256.001,273.334c-16.289,0-31.089-5.421-39.589-14.499c-3.1-3.311-2.929-8.509,0.382-11.609
	c3.309-3.1,8.508-2.929,11.609,0.382c5.289,5.649,16.123,9.299,27.599,9.299s22.31-3.65,27.6-9.299
	c3.101-3.311,8.297-3.481,11.609-0.381c3.31,3.1,3.481,8.297,0.381,11.609C287.089,267.913,272.29,273.334,256.001,273.334z"/>
	<rect x="140.333" y="146.958" style="opacity:0.1;enable-background:new    ;" width="231.333" height="25.618"/>
</svg>