<?xml version="1.0" encoding="UTF-8"?><svg id="Calque_1" xmlns="http://www.w3.org/2000/svg" viewBox="0 0 177.43 130"><defs><style>.cls-1{fill:#fff;}.cls-2,.cls-3{fill:#aeccc7;}.cls-3{fill-rule:evenodd;}</style></defs><rect class="cls-1" width="177.43" height="130"/><g><polygon class="cls-2" points="41.85 61.06 41.85 83.99 49.69 62.44 50.52 62.74 42.68 84.29 57.42 66.73 58.1 67.3 43.36 84.86 63.22 73.4 63.66 74.16 43.8 85.63 66.39 81.65 66.54 82.52 43.96 86.5 66.54 90.48 66.39 91.36 43.8 87.38 63.66 98.84 63.22 99.61 43.36 88.14 58.1 105.71 57.42 106.28 42.68 88.71 50.52 110.26 49.69 110.56 41.85 89.02 41.85 111.95 40.96 111.95 40.96 89.02 33.12 110.56 32.29 110.26 40.13 88.71 25.39 106.28 24.71 105.71 39.45 88.14 19.59 99.61 19.15 98.84 39.01 87.38 16.42 91.36 16.27 90.48 38.85 86.5 16.27 82.52 16.42 81.65 39.01 85.63 19.15 74.16 19.59 73.4 39.45 84.86 24.71 67.3 25.39 66.73 40.13 84.29 32.29 62.74 33.12 62.44 40.96 83.99 40.96 61.06 41.85 61.06"/><polygon class="cls-2" points="137.37 61.06 137.37 83.99 145.21 62.44 146.04 62.74 138.2 84.29 152.94 66.73 153.62 67.3 138.88 84.86 158.74 73.4 159.18 74.16 139.32 85.63 161.91 81.65 162.06 82.52 139.48 86.5 162.06 90.48 161.91 91.36 139.32 87.38 159.18 98.84 158.74 99.61 138.88 88.14 153.62 105.71 152.94 106.28 138.2 88.71 146.04 110.26 145.21 110.56 137.37 89.02 137.37 111.95 136.48 111.95 136.48 89.02 128.64 110.56 127.8 110.26 135.65 88.71 120.91 106.28 120.23 105.71 134.97 88.14 115.11 99.61 114.67 98.84 134.53 87.38 111.94 91.36 111.79 90.48 134.37 86.5 111.79 82.52 111.94 81.65 134.53 85.63 114.67 74.16 115.11 73.4 134.97 84.86 120.23 67.3 120.91 66.73 135.65 84.29 127.8 62.74 128.64 62.44 136.48 83.99 136.48 61.06 137.37 61.06"/><rect class="cls-2" x="79.3" y="78.8" width="15.52" height="1.57" transform="translate(-22.26 123.88) rotate(-64.49)"/><path class="cls-3" d="M93.98,72h-5.22c-.41,0-.75,.34-.75,.75h0c0,.41,.34,.75,.75,.75h5.22c.41,0,.75-.34,.75-.75h0c0-.41-.34-.75-.75-.75Z"/><path class="cls-3" d="M41.41,58.58c15.42,0,27.92,12.5,27.92,27.92s-12.5,27.92-27.92,27.92v-3.1c13.71,0,24.82-11.11,24.82-24.82s-11.11-24.82-24.82-24.82c0,0,0-3.1,0-3.1Zm0,55.84c-15.42,0-27.92-12.5-27.92-27.92s12.5-27.92,27.92-27.92v3.1c-13.71,0-24.82,11.11-24.82,24.82s11.11,24.82,24.82,24.82v3.1Z"/><path class="cls-3" d="M41.41,56.18c16.75,0,30.32,13.57,30.32,30.32,0,3.4-1.47,3.05-2.55,2.93,.1-.96,.15-1.94,.15-2.93,0-15.42-12.5-27.92-27.92-27.92-13.07,0-24.05,8.99-27.08,21.12-.89-.23-2.54-.62-1.27-3.96,4.34-11.43,15.4-19.55,28.35-19.55Z"/><path class="cls-3" d="M136.92,58.58c15.42,0,27.92,12.5,27.92,27.92s-12.5,27.92-27.92,27.92v-3.1c13.71,0,24.82-11.11,24.82-24.82s-11.11-24.82-24.82-24.82v-3.1Zm0,55.84c-15.42,0-27.92-12.5-27.92-27.92s12.5-27.92,27.92-27.92v3.1c-13.71,0-24.82,11.11-24.82,24.82s11.11,24.82,24.82,24.82v3.1Z"/><path class="cls-3" d="M136.92,58.58c-13.07,0-24.05,8.99-27.08,21.12-.89-.23-2.54-.62-1.27-3.96,4.34-11.43,15.4-19.55,28.35-19.55v2.4h0Z"/><path class="cls-2" d="M41.48,85.01l35.09,1.66c1.27,.06,2.59-.06,3.86-.39,1.16-.3,2.25-.75,3.18-1.38l7.76-5.27c.82-.56,1.55-1.25,2.23-2.03,.7-.8,1.33-1.68,1.91-2.58l10.21-15.7c.68-1.04,1.46-2.04,2.35-2.93,.83-.83,1.75-1.58,2.76-2.19l12.85-7.73,1.53,2.56-12.85,7.73c-.78,.47-1.51,1.06-2.17,1.73-.74,.74-1.4,1.58-1.96,2.45l-10.2,15.7c-.65,1-1.36,2-2.17,2.92-.83,.95-1.75,1.81-2.8,2.53l-7.76,5.27c-1.25,.84-2.66,1.44-4.11,1.82-1.55,.39-3.17,.54-4.74,.47l-35.09-1.66,.14-2.98Z"/><polygon class="cls-2" points="135.5 86.96 117.17 30.07 120.01 29.16 138.34 86.05 135.5 86.96"/><path class="cls-2" d="M76.79,71.53l6.84-3.18c.93-.43,1.8-1.02,2.6-1.69,.83-.69,1.62-1.49,2.37-2.31l12.94-14.24c.85-.94,1.81-1.82,2.86-2.58,.97-.7,2.03-1.31,3.15-1.75l14.31-5.72,1.11,2.77-14.31,5.72c-.87,.35-1.71,.83-2.5,1.4-.87,.63-1.68,1.37-2.4,2.17l-12.94,14.24c-.81,.9-1.69,1.78-2.67,2.59-1,.83-2.08,1.56-3.26,2.11l-6.84,3.18-1.25-2.71Z"/><polygon class="cls-2" points="82.36 87.21 64.29 47.87 67.01 46.64 85.07 85.97 82.36 87.21"/><polygon class="cls-2" points="69.96 55.11 42.54 87.47 40.44 89.95 39.93 86.74 34.25 50.79 37.19 50.33 42.37 83.06 67.68 53.19 69.96 55.11"/><path class="cls-2" d="M27.87,51.93c-.83,0-1.5-.67-1.5-1.49s.67-1.5,1.5-1.5h39.39c.83,0,1.5,.67,1.5,1.5s-.67,1.49-1.5,1.49H27.87Z"/><path class="cls-3" d="M77.73,42.38c-.2,2.31-5.34,2.88-7.62,4.82-2.28,1.94-6.78,1.57-8.48,.12-1.7-1.45-7.85-1.48-8.01-3.82-.16-2.33,7.43-1,12.22-1.17,4.79-.17,12.03-1.59,11.89,.05Z"/><path class="cls-2" d="M91.83,26.07c-.78,.28-1.63-.13-1.91-.91-.28-.78,.13-1.63,.91-1.91l12.55-4.48c1.52-.54,3.44-.54,5.12-.04,1.63,.48,3.08,1.45,3.86,2.87l2.96,5.45c.17,.31,.44,.61,.75,.83,.21,.15,.44,.24,.63,.24h1.89c.83,0,1.5,.67,1.5,1.49s-.67,1.5-1.5,1.5h-1.89c-.83,0-1.63-.31-2.33-.78-.7-.48-1.29-1.16-1.67-1.86l-2.96-5.45c-.37-.67-1.16-1.16-2.09-1.44-1.1-.33-2.33-.34-3.27,0l-12.55,4.48Z"/><path class="cls-2" d="M128.31,16.22c.81,.16,1.33,.95,1.17,1.75-.16,.81-.95,1.33-1.75,1.17l-2.42-.49c-.78-.16-1.31-.14-1.57,.06-.24,.18-.37,.65-.37,1.41l-.04,6.2c0,.81-.19,1.84-.61,2.65-.43,.83-1.09,1.49-2.05,1.7l-1.76,.39c-.8,.18-1.6-.33-1.78-1.13-.18-.8,.33-1.6,1.13-1.78l1.76-.39s0-.06,.04-.16c.19-.38,.28-.88,.28-1.3l.04-6.2c.01-1.74,.52-2.98,1.53-3.76,.98-.76,2.31-.96,3.97-.62l2.42,.49Z"/><path class="cls-3" d="M122.38,33.11h3.1v2.61h-4.63l-.09-.29c-.38-1.27,.35-2.32,1.62-2.32h0Zm4.23,0h3.15v2.61h-3.15v-2.61h0Zm4.29,0h3.15v2.61h-3.15v-2.61h0Zm4.29,0h3.15v2.61h-3.15v-2.61h0Zm4.29,0h2.16c1.27,0,3.35,1.03,3.01,2.32l-.08,.29h-5.1v-2.61h0Zm4.8,3.74l-.82,3.15h-3.98v-3.15h4.8Zm-1.12,4.29l-.82,3.15h-2.86v-3.15h3.68Zm-1.12,4.29l-.82,3.15h-1.74v-3.15h2.57Zm-1.12,4.29l-.18,.7c-.2,.76-.5,1.42-1.26,1.85v-2.55h1.45Zm-2.58,2.92c-.37,.06-.8,.1-1.29,.1h-1.86v-3.02h3.15v2.92h0Zm-4.29,.1h-3.15v-3.02h3.15v3.02h0Zm-4.29,0h-1.5c-.57,0-1.15-.21-1.65-.55v-2.47h3.15v3.02h0Zm-4.29-1.78c-.09-.17-.17-.35-.22-.53l-.21-.7h.43v1.23h0Zm-.77-2.37l-.95-3.15h1.72v3.15h-.77Zm-1.29-4.29l-.95-3.15h3.01v3.15h-2.06Zm-1.29-4.29l-.95-3.15h4.29v3.15h-3.35Zm4.48-3.15v3.15h3.15v-3.15h-3.15Zm4.29,0v3.15h3.15v-3.15h-3.15Zm4.29,0v3.15h3.15v-3.15h-3.15Zm-8.57,4.29v3.15h3.15v-3.15h-3.15Zm4.29,0v3.15h3.15v-3.15h-3.15Zm4.29,0v3.15h3.15v-3.15h-3.15Zm-8.57,4.29v3.15h3.15v-3.15h-3.15Zm4.29,0v3.15h3.15v-3.15h-3.15Zm4.29,0v3.15h3.15v-3.15h-3.15Z"/><path class="cls-3" d="M41.41,92.1c3.08,0,5.6-2.52,5.6-5.6s-2.52-5.6-5.6-5.6-5.6,2.52-5.6,5.6,2.52,5.6,5.6,5.6Z"/><path class="cls-3" d="M136.92,92.1c3.08,0,5.6-2.52,5.6-5.6s-2.52-5.6-5.6-5.6-5.6,2.52-5.6,5.6c0,3.09,2.52,5.6,5.6,5.6Z"/><path class="cls-3" d="M83.71,76.12c5.79,0,10.48,4.69,10.48,10.48s-4.69,10.48-10.48,10.48v-2.48c4.42,0,8-3.58,8-8s-3.58-8-8-8v-2.48Zm0,0h0v2.48s0,0,0,0c-4.42,0-8,3.58-8,8s3.58,8,8,8h0v2.48h0c-5.79,0-10.48-4.69-10.48-10.48s4.69-10.48,10.48-10.48Z"/><polygon class="cls-3" points="90.89 92.4 89.68 93.64 84.58 88.65 84.58 95.79 82.84 95.79 82.84 88.72 77.91 93.77 76.67 92.56 81.65 87.46 74.52 87.46 74.52 85.72 81.58 85.72 76.53 80.79 77.74 79.54 82.84 84.53 82.84 77.4 84.58 77.4 84.58 84.46 89.52 79.41 90.76 80.62 85.77 85.72 92.91 85.72 92.91 87.46 85.84 87.46 90.89 92.4"/><rect class="cls-2" x="72.61" y="92.81" width="15.52" height="1.57" transform="translate(-38.71 125.82) rotate(-64.49)"/><path class="cls-3" d="M80.91,99.74h-5.22c-.41,0-.75,.34-.75,.75h0c0,.41,.34,.75,.75,.75h5.22c.41,0,.75-.34,.75-.75h0c0-.41-.34-.75-.75-.75Z"/></g></svg>