<svg xmlns="http://www.w3.org/2000/svg" viewBox="0 0 313.2 126.08">
  <title>Slowy</title>
  <def>
    <style>
      .slowy-logo {
        fill: #2e9285;
      }
    </style>
  </def>
  <path class="slowy-logo" d="M24.7,61.75c-1.73-1.3-4.4-2.95-8-4.95-3.53-2-6.37-3.72-8.5-5.15-2.13-1.43-3.98-3.07-5.55-4.9-1.57-1.83-2.35-3.82-2.35-5.95,0-2.4,1.15-4.97,3.45-7.7,2.3-2.73,5.12-5.03,8.45-6.9,3.33-1.87,6.4-2.8,9.2-2.8,3.4,0,7.38,.38,11.95,1.15,4.57,.77,7.88,1.62,9.95,2.55v16.7h-6.3c-1.8-3.33-3.95-5.93-6.45-7.8-2.5-1.87-5.08-2.8-7.75-2.8-1.33,0-2.4,.38-3.2,1.15-.8,.77-1.2,1.68-1.2,2.75,0,1.4,.88,2.77,2.65,4.1,1.77,1.33,4.58,3.1,8.45,5.3,5.13,2.8,9.08,5.33,11.85,7.6,2.77,2.27,4.15,4.87,4.15,7.8,0,2.47-1.18,5.05-3.55,7.75-2.37,2.7-5.27,4.98-8.7,6.85-3.43,1.87-6.58,2.8-9.45,2.8-3.67,0-8.02-.38-13.05-1.15-5.03-.77-8.62-1.62-10.75-2.55v-17.3H6.3c2,3.53,4.47,6.28,7.4,8.25,2.93,1.97,5.83,2.95,8.7,2.95,1.47,0,2.65-.38,3.55-1.15,.9-.77,1.35-1.68,1.35-2.75,0-1.27-.87-2.55-2.6-3.85Z"/>
  <path class="slowy-logo" d="M173.04,92.74s-6.63,1.53-11.53,7.05c-5.5,6.19-4.93,12.51-4.93,12.51H82.94s1.54-9.9-6.5-16.29-23.39,0-23.39,0l-2.71-6.92s2.48-1.53,5.69-2.14,5.07-.65,5.07-.65V10.5l-8.9,3.1v-5.6L71.8,0h11.86l-.08,3.71-5.48,1.75V88.78s4.33,2.74,6.63,5.92,4.32,8.4,4.32,8.4l59.51,1.64s1.42-5.24,8.3-11.31,14.79-6.59,14.79-6.59l1.38,5.91Z"/>
  <path class="slowy-logo" d="M137.3,26.85c3.87,2.3,6.88,5.45,9.05,9.45,2.17,4,3.25,8.43,3.25,13.3,0,5.27-1.7,10.18-5.1,14.75-3.4,4.57-7.65,8.2-12.75,10.9-5.1,2.7-10.02,4.05-14.75,4.05s-9.25-1.15-13.15-3.45c-3.9-2.3-6.93-5.45-9.1-9.45-2.17-4-3.25-8.43-3.25-13.3,0-5.27,1.7-10.18,5.1-14.75,3.4-4.57,7.65-8.2,12.75-10.9,5.1-2.7,10.02-4.05,14.75-4.05s9.33,1.15,13.2,3.45Zm-25.35,11.5c-1.43,2.23-2.15,5.55-2.15,9.95,0,5.6,1.13,10.25,3.4,13.95,2.27,3.7,5.47,5.55,9.6,5.55,2.73,0,4.82-1.15,6.25-3.45,1.43-2.3,2.15-5.65,2.15-10.05,0-5.6-1.13-10.22-3.4-13.85-2.27-3.63-5.43-5.45-9.5-5.45-2.8,0-4.92,1.12-6.35,3.35Z"/>
  <path class="slowy-logo" d="M248.2,30l-23.3,48.3h-12.6l-8.8-21.5-11.4,21.5h-12.6l-14.9-36.2-9.7-5.6v-5.6l22.1-8.4,3.8,15.1,10.9,26.5,8.1-16.2-2.3-5.7-9.8-5.7v-5.6l22.1-8.4,3.8,15.1,10.8,26,10.4-22.7-14.9-10,3.3-6.5h25v5.6Z"/>
  <path class="slowy-logo" d="M313.2,29.9l-25.6,48.3-23.5,26.4-6.3-4.9c4.93-5.93,8.4-11.02,10.4-15.25,2-4.23,3.13-9.08,3.4-14.55l-11.5-27.8-9.7-5.6v-5.6l22.1-8.4,3.8,15.1,10.9,26.6,12.1-23.6-14.3-9.7,3.2-6.5,25-.1v5.6Z"/>
  <path class="slowy-logo" d="M75.37,101.49c1.49,1.84,2.4,3.99,2.75,6.43,.35,2.44,.09,4.93-.77,7.46-.94,2.74-2.64,5.01-5.12,6.82-2.48,1.81-5.21,2.98-8.19,3.53-2.98,.55-5.63,.43-7.95-.36s-4.33-2.15-5.83-4c-1.5-1.85-2.43-4-2.78-6.44-.35-2.44-.09-4.93,.77-7.46,.94-2.74,2.64-5.01,5.12-6.82,2.48-1.81,5.21-2.98,8.19-3.53,2.98-.55,5.63-.43,7.95,.36s4.37,2.16,5.86,4.01Z"/>
  <path class="slowy-logo" d="M188.74,101.49c1.49,1.84,2.4,3.99,2.75,6.43,.35,2.44,.09,4.93-.77,7.46-.94,2.74-2.64,5.01-5.12,6.82-2.48,1.81-5.21,2.98-8.19,3.53-2.98,.55-5.63,.43-7.95-.36s-4.33-2.15-5.83-4c-1.5-1.85-2.43-4-2.78-6.44-.35-2.44-.09-4.93,.77-7.46,.94-2.74,2.64-5.01,5.12-6.82,2.48-1.81,5.21-2.98,8.19-3.53,2.98-.55,5.63-.43,7.95,.36s4.37,2.16,5.86,4.01Z"/>
</svg>