<svg xmlns="http://www.w3.org/2000/svg" viewBox="0 0 400 239.8">
  <path style="fill: #d9dd92" d="M0,0V210.06L47.71,109.62C73.95,54.38,96.25,7.98,97.27,6.51c1.02-1.47,3.33-3.54,5.15-4.59L105.72,0H0ZM238.03,239.8l2.08-1.62c1.8-1.4,2.07-2.12,2.04-5.42-.09-8.24-4.39-48.47-5.35-49.95-2.08-3.21-3.97-3.39-36.8-3.39s-34.72,.17-36.8,3.39c-.96,1.48-5.27,41.76-5.35,49.95-.03,3.29,.24,4.02,2.03,5.41l2.07,1.61M294.28,0l3.3,1.92c1.82,1.06,4.13,3.12,5.14,4.59,1.01,1.47,23.31,47.87,49.56,103.11l47.72,100.44V0h-105.72Zm-112.33,.64c-1.12,.52-2.44,1.77-2.92,2.78-.86,1.79-4.03,31.78-4.03,38.1,0,2.48,.4,3.5,1.81,4.61,1.77,1.39,2.31,1.43,23.3,1.43s21.5,0,23.19-1.52c1.22-1.09,1.7-2.34,1.69-4.43,0-6.27-3.18-36.47-4.02-38.2-.49-1.01-1.8-2.26-2.92-2.78h-36.11Zm48.13,142.42c1.8-.63,2.86-1.52,3.21-2.72,.46-1.54-3.59-52.57-4.89-61.58-.34-2.35-1.07-3.75-2.66-5.08l-2.19-1.84h-47.12l-2.17,1.82c-1.46,1.23-2.32,2.78-2.64,4.76-1.18,7.41-5.39,60.35-4.92,61.93,1.02,3.4,2.89,3.6,33.12,3.63,22.22,.02,28.08-.16,30.25-.92h0Z"/>
</svg>